<svg width="53" height="53" viewBox="0 0 53 53" fill="none" xmlns="http://www.w3.org/2000/svg">
<g clip-path="url(#clip0_178_4990)">
<path d="M23.6239 51.0255C24.5168 51.4911 25.5088 51.7342 26.5158 51.7342C27.5228 51.7342 28.5149 51.4911 29.4078 51.0255L46.3444 41.2487C47.6985 40.4664 48.7786 38.866 49.1241 37.2776C34.4987 38.1096 24.9006 42.714 18.5469 48.1028L23.6239 51.0255Z" fill="white"/>
<path d="M46.3449 11.6741L29.4083 1.89537C28.5154 1.42977 27.5233 1.18663 26.5164 1.18663C25.5094 1.18663 24.5173 1.42977 23.6244 1.89537L6.6898 11.6741C5.03982 12.6252 3.79688 14.7795 3.79688 16.6817V36.2392C3.79688 38.1433 5.03982 40.2956 6.6898 41.2487L7.99827 42.0032C22.8203 34.613 39.6219 34.9109 49.2378 35.9513V16.6916C49.2378 14.7795 47.9949 12.6252 46.3449 11.6741ZM35.6111 31.9623H17.4236V22.5132C17.4664 22.2294 17.6155 21.9725 17.8406 21.7944L26.1004 17.0291C26.3688 16.9259 26.6659 16.9259 26.9343 17.0291L35.1941 21.7944C35.4192 21.9725 35.5683 22.2294 35.6111 22.5132V31.9623ZM40.9423 31.9623H38.2856V22.5132C38.2665 21.901 38.0964 21.303 37.7906 20.7723C37.4847 20.2417 37.0525 19.7948 36.5324 19.4713L28.2706 14.706C27.7307 14.4192 27.1287 14.2692 26.5174 14.2692C25.906 14.2692 25.304 14.4192 24.7641 14.706L16.5043 19.4713C15.9845 19.7939 15.5523 20.2397 15.2462 20.7693C14.94 21.2989 14.7692 21.8958 14.7491 22.5072V31.9564H12.0944V19.249C12.1255 18.9154 12.2281 18.5926 12.3954 18.3023C12.5626 18.0121 12.7904 17.7614 13.0634 17.5672L25.5464 10.3597C25.8513 10.221 26.1824 10.1493 26.5174 10.1493C26.8523 10.1493 27.1834 10.221 27.4883 10.3597L39.9713 17.5672C40.2446 17.7613 40.4727 18.0119 40.6403 18.3022C40.8078 18.5924 40.9108 18.9153 40.9423 19.249V31.9623ZM46.5633 31.9623H43.6148V19.2549C43.6148 17.736 42.622 16.0165 41.3076 15.258L28.8245 8.05054C28.1129 7.67694 27.3211 7.48176 26.5174 7.48176C25.7136 7.48176 24.9218 7.67694 24.2102 8.05054L11.7271 15.258C10.4127 16.0165 9.41991 17.736 9.41991 19.2549V31.9623H6.46345V16.6916C6.46345 15.7524 7.20405 14.4698 8.01812 13.9992L24.9547 4.22242C25.4403 3.99099 25.9715 3.8709 26.5094 3.8709C27.0473 3.8709 27.5785 3.99099 28.0641 4.22242L45.0007 13.9992C45.8148 14.4698 46.5554 15.7524 46.5554 16.6916L46.5633 31.9623Z" fill="white"/>
</g>
<defs>
<clipPath id="clip0_178_4990">
<rect width="45.441" height="50.5478" fill="white" transform="translate(3.79688 1.18673)"/>
</clipPath>
</defs>
</svg>
