<svg width="34" height="34" viewBox="0 0 34 34" fill="none" xmlns="http://www.w3.org/2000/svg">
<g clip-path="url(#clip0_221_11495)">
<rect width="34" height="34" fill="white"/>
<path d="M19.062 13.1362L15.277 11.8571C14.3163 11.7736 14.0936 12.4662 14.1023 12.823V15.4334L15.0681 16.4775V20.4975C15.1099 20.7899 15.2596 20.9674 15.3292 21.0196L16.1825 21.4584C16.213 21.4741 16.2499 21.457 16.2573 21.4235C16.4368 20.6078 16.7938 19.0041 16.8954 18.618C16.9998 18.2212 17.1129 18.6093 17.1564 18.853L17.4668 22.0859C17.4686 22.1045 17.48 22.1206 17.4969 22.1285C17.6166 22.1842 17.9155 22.3293 18.3572 22.5597C18.8375 22.8103 19.0098 22.6293 19.0359 22.5075V18.2004C19.0359 17.9915 19.1142 17.8088 19.558 17.6522C19.913 17.5269 20.0191 17.3041 20.0278 17.2084C20.0104 16.7473 19.9861 15.59 20.0278 14.6502C20.0696 13.7105 19.4014 13.2493 19.062 13.1362Z" fill="#0045E6" stroke="#0045E6" stroke-width="0.0522075"/>
<path d="M9.87297 9.45557H13.5536C13.491 10.1656 13.7189 10.7085 13.8407 10.8913C12.7339 11.5804 12.5269 12.762 12.5617 13.2667V19.3228C12.5617 20.0537 8.41116 19.1662 8.04571 21.2284C7.76334 22.8218 11.2244 23.472 13.1703 23.6165C13.2824 23.6248 13.3794 23.5413 13.3901 23.4294L13.5196 22.0784C13.5349 21.9198 13.7151 21.8359 13.8463 21.9266L18.2216 24.9504C18.3581 25.0447 18.3353 25.2531 18.1815 25.3156L13.3854 27.2662C13.2444 27.3235 13.0914 27.2156 13.0981 27.0635L13.1533 25.8111C13.1582 25.7004 13.0731 25.605 12.9629 25.593C7.51123 24.9999 6.14014 22.9308 6.14014 21.9593V12.9796C6.45338 10.4318 8.75921 9.56868 9.87297 9.45557Z" fill="#0045E6" stroke="#0045E6" stroke-width="0.0522075"/>
<path d="M24.1781 9.48193H20.5758C20.7011 10.5261 20.0537 11.4832 19.7144 11.8313C21.0926 12.2072 21.5242 13.5889 21.5677 14.2328V19.0735C21.5677 19.2131 21.6771 19.3277 21.8163 19.3381C23.231 19.4438 25.7167 19.9561 26.0315 21.333C26.3656 22.7949 22.8294 23.4561 21.0195 23.6041C20.6715 23.6389 19.9911 23.8964 20.0537 24.6482C20.1164 25.4 20.8107 25.5531 21.1501 25.5357C26.4544 25.1599 27.937 22.7513 28.0154 21.5941V13.0843C27.7856 10.2024 25.3615 9.48193 24.1781 9.48193Z" fill="#0045E6" stroke="#0045E6" stroke-width="0.0522075"/>
<circle cx="17.0522" cy="9.48177" r="2.03609" fill="#0045E6"/>
</g>
<defs>
<clipPath id="clip0_221_11495">
<rect width="34" height="34" fill="white"/>
</clipPath>
</defs>
</svg>
