<svg width="34" height="34" viewBox="0 0 34 34" fill="none" xmlns="http://www.w3.org/2000/svg">
<g clip-path="url(#clip0_221_11496)">
<rect width="34" height="34" fill="white"/>
<g clip-path="url(#clip1_221_11496)">
<path d="M20.7656 11.4531C20.7656 13.4793 18.0529 17.09 16.8617 18.5781C16.576 18.9344 16.0453 18.9344 15.7633 18.5781C14.5721 17.09 11.8594 13.4793 11.8594 11.4531C11.8594 8.99277 13.8521 7 16.3125 7C18.7729 7 20.7656 8.99277 20.7656 11.4531ZM21.0625 14.4367C21.1924 14.1807 21.3111 13.9246 21.4187 13.6723C21.4373 13.6277 21.4559 13.5795 21.4744 13.535L25.7791 11.8131C26.3654 11.5793 27 12.0098 27 12.6406V22.6898C27 23.0535 26.7773 23.3801 26.4396 23.5174L21.0625 25.666V14.4367ZM10.7312 12.1322C10.8203 12.6555 10.9984 13.1824 11.2062 13.6723C11.3139 13.9246 11.4326 14.1807 11.5625 14.4367V23.766L6.8459 25.6549C6.25957 25.8887 5.625 25.4582 5.625 24.8273V14.7781C5.625 14.4145 5.84766 14.0879 6.18535 13.9506L10.735 12.1322H10.7312ZM17.7895 19.3203C18.3053 18.6746 19.1143 17.6244 19.875 16.4629V25.7143L12.75 23.677V16.4629C13.5107 17.6244 14.3197 18.6746 14.8355 19.3203C15.5963 20.2703 17.0287 20.2703 17.7895 19.3203ZM16.3125 12.6406C16.7062 12.6406 17.0837 12.4842 17.3621 12.2059C17.6405 11.9275 17.7969 11.5499 17.7969 11.1562C17.7969 10.7626 17.6405 10.385 17.3621 10.1066C17.0837 9.82826 16.7062 9.67188 16.3125 9.67188C15.9188 9.67188 15.5413 9.82826 15.2629 10.1066C14.9845 10.385 14.8281 10.7626 14.8281 11.1562C14.8281 11.5499 14.9845 11.9275 15.2629 12.2059C15.5413 12.4842 15.9188 12.6406 16.3125 12.6406Z" fill="#0045E6"/>
</g>
</g>
<defs>
<clipPath id="clip0_221_11496">
<rect width="34" height="34" fill="white"/>
</clipPath>
<clipPath id="clip1_221_11496">
<rect width="21.375" height="19" fill="white" transform="translate(5.625 7)"/>
</clipPath>
</defs>
</svg>
