<svg width="412" height="322" viewBox="0 0 412 322" fill="none" xmlns="http://www.w3.org/2000/svg">
<rect width="412" height="322" fill="white"/>
<path d="M206 101.728C177.776 101.728 155.024 124.48 155.024 152.704C155.024 180.928 177.776 203.968 206 203.968C234.224 203.968 256.976 181.216 256.976 152.992C256.976 124.768 234.224 101.728 206 101.728ZM206 191.872C184.4 191.872 167.12 174.304 167.12 152.992C167.12 131.392 184.688 114.112 206 114.112C227.6 114.112 244.88 131.68 244.88 152.992C244.88 174.304 227.6 191.872 206 191.872Z" fill="#0045E6"/>
<path d="M275.12 91.36C275.12 90.496 275.12 89.632 275.12 88.48C275.12 61.12 136.88 61.12 136.88 88.48V91.36C150.128 82.72 179.792 79.264 206 79.264C232.208 79.264 261.872 82.72 275.12 91.36Z" fill="#0045E6"/>
<path d="M206 84.448C172.304 84.448 144.656 89.92 136.88 97.696C137.744 130.816 147.248 148.096 152.144 154.72C152.144 154.144 152.144 153.568 152.144 152.992C152.144 123.328 176.336 99.136 206 99.136C235.664 99.136 259.856 123.328 259.856 152.992V154.72C264.752 148.096 273.968 131.104 274.832 97.696C271.664 94.528 265.04 91.648 255.824 89.344C242.864 86.176 225.008 84.448 206 84.448Z" fill="#0045E6"/>
<path d="M83.6623 235.466C84.2383 235.742 84.6943 236.138 85.0303 236.654C85.3783 237.17 85.5523 237.764 85.5523 238.436C85.5523 239.444 85.1983 240.29 84.4903 240.974C83.7823 241.658 82.9183 242 81.8983 242H76.4623V229.4H81.5023C82.4863 229.4 83.3203 229.73 84.0043 230.39C84.6883 231.05 85.0303 231.866 85.0303 232.838C85.0303 233.954 84.5743 234.83 83.6623 235.466ZM81.5023 230.966H78.1363V234.818H81.5023C82.0303 234.818 82.4743 234.632 82.8343 234.26C83.1943 233.888 83.3743 233.432 83.3743 232.892C83.3743 232.364 83.1883 231.914 82.8163 231.542C82.4563 231.158 82.0183 230.966 81.5023 230.966ZM81.8983 240.434C82.4623 240.434 82.9363 240.236 83.3203 239.84C83.7043 239.444 83.8963 238.958 83.8963 238.382C83.8963 237.818 83.6983 237.338 83.3023 236.942C82.9183 236.546 82.4503 236.348 81.8983 236.348H78.1363V240.434H81.8983ZM91.1725 236.24C92.0725 236.24 92.8165 236.51 93.4045 237.05C94.0045 237.578 94.3045 238.268 94.3045 239.12C94.3045 239.972 94.0045 240.668 93.4045 241.208C92.8165 241.736 92.0725 242 91.1725 242H87.3745V233H88.9405V236.24H91.1725ZM95.4745 233H97.0405V242H95.4745V233ZM91.1725 240.542C91.6165 240.542 91.9885 240.416 92.2885 240.164C92.6005 239.9 92.7565 239.552 92.7565 239.12C92.7565 238.688 92.6005 238.34 92.2885 238.076C91.9885 237.812 91.6165 237.68 91.1725 237.68H88.9405V240.542H91.1725ZM112.933 233V242H111.403V235.466L108.541 240.074H108.343L105.481 235.466V242H103.933V233H105.607L108.433 237.554L111.259 233H112.933ZM122.92 240.866C121.996 241.778 120.874 242.234 119.554 242.234C118.234 242.234 117.112 241.778 116.188 240.866C115.276 239.954 114.82 238.832 114.82 237.5C114.82 236.168 115.276 235.046 116.188 234.134C117.112 233.222 118.234 232.766 119.554 232.766C120.874 232.766 121.996 233.222 122.92 234.134C123.844 235.046 124.306 236.168 124.306 237.5C124.306 238.832 123.844 239.954 122.92 240.866ZM119.554 240.704C120.454 240.704 121.21 240.398 121.822 239.786C122.434 239.174 122.74 238.412 122.74 237.5C122.74 236.588 122.434 235.826 121.822 235.214C121.21 234.602 120.454 234.296 119.554 234.296C118.666 234.296 117.916 234.602 117.304 235.214C116.692 235.826 116.386 236.588 116.386 237.5C116.386 238.412 116.692 239.174 117.304 239.786C117.916 240.398 118.666 240.704 119.554 240.704ZM136.501 242H134.665L131.299 237.734V242H129.751V237.734L126.385 242H124.567L128.329 237.356L124.747 233H126.565L129.751 236.978V233H131.299V236.978L134.485 233H136.321L132.721 237.356L136.501 242ZM138.377 238.22C138.533 239.024 138.899 239.648 139.475 240.092C140.063 240.536 140.783 240.758 141.635 240.758C142.823 240.758 143.687 240.32 144.227 239.444L145.559 240.2C144.683 241.556 143.363 242.234 141.599 242.234C140.171 242.234 139.007 241.79 138.107 240.902C137.219 240.002 136.775 238.868 136.775 237.5C136.775 236.144 137.213 235.016 138.089 234.116C138.965 233.216 140.099 232.766 141.491 232.766C142.811 232.766 143.885 233.234 144.713 234.17C145.553 235.094 145.973 236.21 145.973 237.518C145.973 237.746 145.955 237.98 145.919 238.22H138.377ZM141.491 234.242C140.651 234.242 139.955 234.482 139.403 234.962C138.851 235.43 138.509 236.06 138.377 236.852H144.389C144.257 236 143.921 235.352 143.381 234.908C142.841 234.464 142.211 234.242 141.491 234.242ZM154.117 233V234.512H151.057V242H149.491V234.512H146.413V233H154.117ZM156.236 238.22C156.392 239.024 156.758 239.648 157.334 240.092C157.922 240.536 158.642 240.758 159.494 240.758C160.682 240.758 161.546 240.32 162.086 239.444L163.418 240.2C162.542 241.556 161.222 242.234 159.458 242.234C158.03 242.234 156.866 241.79 155.966 240.902C155.078 240.002 154.634 238.868 154.634 237.5C154.634 236.144 155.072 235.016 155.948 234.116C156.824 233.216 157.958 232.766 159.35 232.766C160.67 232.766 161.744 233.234 162.572 234.17C163.412 235.094 163.832 236.21 163.832 237.518C163.832 237.746 163.814 237.98 163.778 238.22H156.236ZM159.35 234.242C158.51 234.242 157.814 234.482 157.262 234.962C156.71 235.43 156.368 236.06 156.236 236.852H162.248C162.116 236 161.78 235.352 161.24 234.908C160.7 234.464 160.07 234.242 159.35 234.242ZM177.926 233V242H176.36V234.494H171.698V242H170.132V233H177.926ZM187.906 240.866C186.982 241.778 185.86 242.234 184.54 242.234C183.22 242.234 182.098 241.778 181.174 240.866C180.262 239.954 179.806 238.832 179.806 237.5C179.806 236.168 180.262 235.046 181.174 234.134C182.098 233.222 183.22 232.766 184.54 232.766C185.86 232.766 186.982 233.222 187.906 234.134C188.83 235.046 189.292 236.168 189.292 237.5C189.292 238.832 188.83 239.954 187.906 240.866ZM184.54 240.704C185.44 240.704 186.196 240.398 186.808 239.786C187.42 239.174 187.726 238.412 187.726 237.5C187.726 236.588 187.42 235.826 186.808 235.214C186.196 234.602 185.44 234.296 184.54 234.296C183.652 234.296 182.902 234.602 182.29 235.214C181.678 235.826 181.372 236.588 181.372 237.5C181.372 238.412 181.678 239.174 182.29 239.786C182.902 240.398 183.652 240.704 184.54 240.704ZM195.368 242.234C194.012 242.234 192.884 241.784 191.984 240.884C191.084 239.972 190.634 238.844 190.634 237.5C190.634 236.156 191.084 235.034 191.984 234.134C192.884 233.222 194.012 232.766 195.368 232.766C196.256 232.766 197.054 232.982 197.762 233.414C198.47 233.834 198.998 234.404 199.346 235.124L198.032 235.88C197.804 235.4 197.45 235.016 196.97 234.728C196.502 234.44 195.968 234.296 195.368 234.296C194.468 234.296 193.712 234.602 193.1 235.214C192.5 235.826 192.2 236.588 192.2 237.5C192.2 238.4 192.5 239.156 193.1 239.768C193.712 240.38 194.468 240.686 195.368 240.686C195.968 240.686 196.508 240.548 196.988 240.272C197.468 239.984 197.834 239.6 198.086 239.12L199.418 239.894C199.034 240.602 198.482 241.172 197.762 241.604C197.042 242.024 196.244 242.234 195.368 242.234ZM209.982 233V242H208.452V235.466L205.59 240.074H205.392L202.53 235.466V242H200.982V233H202.656L205.482 237.554L208.308 233H209.982ZM219.969 240.866C219.045 241.778 217.923 242.234 216.603 242.234C215.283 242.234 214.161 241.778 213.237 240.866C212.325 239.954 211.869 238.832 211.869 237.5C211.869 236.168 212.325 235.046 213.237 234.134C214.161 233.222 215.283 232.766 216.603 232.766C217.923 232.766 219.045 233.222 219.969 234.134C220.893 235.046 221.355 236.168 221.355 237.5C221.355 238.832 220.893 239.954 219.969 240.866ZM216.603 240.704C217.503 240.704 218.259 240.398 218.871 239.786C219.483 239.174 219.789 238.412 219.789 237.5C219.789 236.588 219.483 235.826 218.871 235.214C218.259 234.602 217.503 234.296 216.603 234.296C215.715 234.296 214.965 234.602 214.353 235.214C213.741 235.826 213.435 236.588 213.435 237.5C213.435 238.412 213.741 239.174 214.353 239.786C214.965 240.398 215.715 240.704 216.603 240.704ZM229.545 233V234.512H226.485V242H224.919V234.512H221.841V233H229.545ZM235.885 232.766C237.145 232.766 238.219 233.228 239.107 234.152C239.995 235.064 240.439 236.18 240.439 237.5C240.439 238.82 239.995 239.942 239.107 240.866C238.219 241.778 237.145 242.234 235.885 242.234C234.397 242.234 233.263 241.64 232.483 240.452V245.6H230.917V233H232.483V234.548C233.263 233.36 234.397 232.766 235.885 232.766ZM235.687 240.722C236.587 240.722 237.343 240.416 237.955 239.804C238.567 239.18 238.873 238.412 238.873 237.5C238.873 236.588 238.567 235.826 237.955 235.214C237.343 234.59 236.587 234.278 235.687 234.278C234.775 234.278 234.013 234.59 233.401 235.214C232.789 235.826 232.483 236.588 232.483 237.5C232.483 238.412 232.789 239.18 233.401 239.804C234.013 240.416 234.775 240.722 235.687 240.722ZM243.406 238.22C243.562 239.024 243.928 239.648 244.504 240.092C245.092 240.536 245.812 240.758 246.664 240.758C247.852 240.758 248.716 240.32 249.256 239.444L250.588 240.2C249.712 241.556 248.392 242.234 246.628 242.234C245.2 242.234 244.036 241.79 243.136 240.902C242.248 240.002 241.804 238.868 241.804 237.5C241.804 236.144 242.242 235.016 243.118 234.116C243.994 233.216 245.128 232.766 246.52 232.766C247.84 232.766 248.914 233.234 249.742 234.17C250.582 235.094 251.002 236.21 251.002 237.518C251.002 237.746 250.984 237.98 250.948 238.22H243.406ZM246.52 234.242C245.68 234.242 244.984 234.482 244.432 234.962C243.88 235.43 243.538 236.06 243.406 236.852H249.418C249.286 236 248.95 235.352 248.41 234.908C247.87 234.464 247.24 234.242 246.52 234.242ZM259.147 233V234.512H256.087V242H254.521V234.512H251.443V233H259.147ZM264.317 236.24C265.217 236.24 265.961 236.51 266.549 237.05C267.149 237.578 267.449 238.268 267.449 239.12C267.449 239.972 267.149 240.668 266.549 241.208C265.961 241.736 265.217 242 264.317 242H260.519V233H262.085V236.24H264.317ZM264.317 240.542C264.761 240.542 265.133 240.416 265.433 240.164C265.745 239.9 265.901 239.552 265.901 239.12C265.901 238.688 265.745 238.34 265.433 238.076C265.133 237.812 264.761 237.68 264.317 237.68H262.085V240.542H264.317ZM281.426 233V242H279.86V234.494H275.198V242H273.632V233H281.426ZM288.778 232.766C290.038 232.766 291.112 233.228 292 234.152C292.888 235.064 293.332 236.18 293.332 237.5C293.332 238.82 292.888 239.942 292 240.866C291.112 241.778 290.038 242.234 288.778 242.234C287.29 242.234 286.156 241.64 285.376 240.452V245.6H283.81V233H285.376V234.548C286.156 233.36 287.29 232.766 288.778 232.766ZM288.58 240.722C289.48 240.722 290.236 240.416 290.848 239.804C291.46 239.18 291.766 238.412 291.766 237.5C291.766 236.588 291.46 235.826 290.848 235.214C290.236 234.59 289.48 234.278 288.58 234.278C287.668 234.278 286.906 234.59 286.294 235.214C285.682 235.826 285.376 236.588 285.376 237.5C285.376 238.412 285.682 239.18 286.294 239.804C286.906 240.416 287.668 240.722 288.58 240.722ZM301.581 233V242H300.033V238.76H298.719L296.199 242H294.291L296.919 238.67C296.247 238.502 295.701 238.166 295.281 237.662C294.861 237.158 294.651 236.57 294.651 235.898C294.651 235.07 294.945 234.38 295.533 233.828C296.121 233.276 296.859 233 297.747 233H301.581ZM297.801 237.356H300.033V234.458H297.801C297.357 234.458 296.979 234.59 296.667 234.854C296.355 235.118 296.199 235.472 296.199 235.916C296.199 236.348 296.355 236.696 296.667 236.96C296.979 237.224 297.357 237.356 297.801 237.356ZM312.955 233V242H311.425V235.466L308.563 240.074H308.365L305.503 235.466V242H303.955V233H305.629L308.455 237.554L311.281 233H312.955ZM321.627 233H323.301L319.629 242.558C319.245 243.578 318.705 244.352 318.009 244.88C317.313 245.42 316.521 245.66 315.633 245.6V244.142C316.737 244.226 317.547 243.626 318.063 242.342L318.207 242.018L314.301 233H315.957L319.035 240.056L321.627 233ZM332.475 232.766C333.795 232.766 334.911 233.222 335.823 234.134C336.747 235.046 337.209 236.168 337.209 237.5C337.209 238.832 336.747 239.954 335.823 240.866C334.911 241.778 333.795 242.234 332.475 242.234C331.287 242.234 330.261 241.856 329.397 241.1C328.533 240.344 328.017 239.39 327.849 238.238H326.175V242H324.609V233H326.175V236.744H327.849C328.017 235.592 328.533 234.644 329.397 233.9C330.273 233.144 331.299 232.766 332.475 232.766ZM332.475 240.704C333.363 240.704 334.113 240.398 334.725 239.786C335.337 239.174 335.643 238.412 335.643 237.5C335.643 236.588 335.337 235.826 334.725 235.214C334.113 234.602 333.363 234.296 332.475 234.296C331.575 234.296 330.819 234.602 330.207 235.214C329.595 235.826 329.289 236.588 329.289 237.5C329.289 238.412 329.595 239.174 330.207 239.786C330.819 240.398 331.575 240.704 332.475 240.704ZM98.4738 256V257.512H95.4138V265H93.8478V257.512H90.7698V256H98.4738ZM104.814 255.766C106.074 255.766 107.148 256.228 108.036 257.152C108.924 258.064 109.368 259.18 109.368 260.5C109.368 261.82 108.924 262.942 108.036 263.866C107.148 264.778 106.074 265.234 104.814 265.234C103.326 265.234 102.192 264.64 101.412 263.452V268.6H99.8462V256H101.412V257.548C102.192 256.36 103.326 255.766 104.814 255.766ZM104.616 263.722C105.516 263.722 106.272 263.416 106.884 262.804C107.496 262.18 107.802 261.412 107.802 260.5C107.802 259.588 107.496 258.826 106.884 258.214C106.272 257.59 105.516 257.278 104.616 257.278C103.704 257.278 102.942 257.59 102.33 258.214C101.718 258.826 101.412 259.588 101.412 260.5C101.412 261.412 101.718 262.18 102.33 262.804C102.942 263.416 103.704 263.722 104.616 263.722ZM118.689 256H120.255V265H118.689V263.452C117.909 264.64 116.775 265.234 115.287 265.234C114.027 265.234 112.953 264.778 112.065 263.866C111.177 262.942 110.733 261.82 110.733 260.5C110.733 259.18 111.177 258.064 112.065 257.152C112.953 256.228 114.027 255.766 115.287 255.766C116.775 255.766 117.909 256.36 118.689 257.548V256ZM115.485 263.722C116.397 263.722 117.159 263.416 117.771 262.804C118.383 262.18 118.689 261.412 118.689 260.5C118.689 259.588 118.383 258.826 117.771 258.214C117.159 257.59 116.397 257.278 115.485 257.278C114.585 257.278 113.829 257.59 113.217 258.214C112.605 258.826 112.299 259.588 112.299 260.5C112.299 261.412 112.605 262.18 113.217 262.804C113.829 263.416 114.585 263.722 115.485 263.722ZM128.855 256H130.421V265H128.855V261.238H124.193V265H122.627V256H124.193V259.744H128.855V256ZM137.035 265.234C135.679 265.234 134.551 264.784 133.651 263.884C132.751 262.972 132.301 261.844 132.301 260.5C132.301 259.156 132.751 258.034 133.651 257.134C134.551 256.222 135.679 255.766 137.035 255.766C137.923 255.766 138.721 255.982 139.429 256.414C140.137 256.834 140.665 257.404 141.013 258.124L139.699 258.88C139.471 258.4 139.117 258.016 138.637 257.728C138.169 257.44 137.635 257.296 137.035 257.296C136.135 257.296 135.379 257.602 134.767 258.214C134.167 258.826 133.867 259.588 133.867 260.5C133.867 261.4 134.167 262.156 134.767 262.768C135.379 263.38 136.135 263.686 137.035 263.686C137.635 263.686 138.175 263.548 138.655 263.272C139.135 262.984 139.501 262.6 139.753 262.12L141.085 262.894C140.701 263.602 140.149 264.172 139.429 264.604C138.709 265.024 137.911 265.234 137.035 265.234ZM149.962 256V265H148.396V257.512H144.85V261.184C144.85 262.66 144.55 263.692 143.95 264.28C143.362 264.856 142.528 265.096 141.448 265V263.524C142.06 263.608 142.516 263.476 142.816 263.128C143.128 262.768 143.284 262.108 143.284 261.148V256H149.962ZM159.066 256V265H157.518V261.76H156.204L153.684 265H151.776L154.404 261.67C153.732 261.502 153.186 261.166 152.766 260.662C152.346 260.158 152.136 259.57 152.136 258.898C152.136 258.07 152.43 257.38 153.018 256.828C153.606 256.276 154.344 256 155.232 256H159.066ZM155.286 260.356H157.518V257.458H155.286C154.842 257.458 154.464 257.59 154.152 257.854C153.84 258.118 153.684 258.472 153.684 258.916C153.684 259.348 153.84 259.696 154.152 259.96C154.464 260.224 154.842 260.356 155.286 260.356ZM169 263.506H170.476V267.412H168.928V265H161.44V256H163.006V263.506H167.434V256H169V263.506ZM178.679 256H179.939V265H178.391V258.682L173.405 265H172.145V256H173.693V262.318L178.679 256ZM190.189 255.766C191.509 255.766 192.625 256.222 193.537 257.134C194.461 258.046 194.923 259.168 194.923 260.5C194.923 261.832 194.461 262.954 193.537 263.866C192.625 264.778 191.509 265.234 190.189 265.234C189.001 265.234 187.975 264.856 187.111 264.1C186.247 263.344 185.731 262.39 185.563 261.238H183.889V265H182.323V256H183.889V259.744H185.563C185.731 258.592 186.247 257.644 187.111 256.9C187.987 256.144 189.013 255.766 190.189 255.766ZM190.189 263.704C191.077 263.704 191.827 263.398 192.439 262.786C193.051 262.174 193.357 261.412 193.357 260.5C193.357 259.588 193.051 258.826 192.439 258.214C191.827 257.602 191.077 257.296 190.189 257.296C189.289 257.296 188.533 257.602 187.921 258.214C187.309 258.826 187.003 259.588 187.003 260.5C187.003 261.412 187.309 262.174 187.921 262.786C188.533 263.398 189.289 263.704 190.189 263.704ZM208.886 263.866C207.962 264.778 206.84 265.234 205.52 265.234C204.2 265.234 203.078 264.778 202.154 263.866C201.242 262.954 200.786 261.832 200.786 260.5C200.786 259.168 201.242 258.046 202.154 257.134C203.078 256.222 204.2 255.766 205.52 255.766C206.84 255.766 207.962 256.222 208.886 257.134C209.81 258.046 210.272 259.168 210.272 260.5C210.272 261.832 209.81 262.954 208.886 263.866ZM205.52 263.704C206.42 263.704 207.176 263.398 207.788 262.786C208.4 262.174 208.706 261.412 208.706 260.5C208.706 259.588 208.4 258.826 207.788 258.214C207.176 257.602 206.42 257.296 205.52 257.296C204.632 257.296 203.882 257.602 203.27 258.214C202.658 258.826 202.352 259.588 202.352 260.5C202.352 261.412 202.658 262.174 203.27 262.786C203.882 263.398 204.632 263.704 205.52 263.704ZM216.204 265.234C214.872 265.234 213.774 264.796 212.91 263.92C212.046 263.044 211.614 261.916 211.614 260.536C211.614 259 211.836 257.818 212.28 256.99C212.736 256.162 213.66 255.412 215.052 254.74C215.304 254.62 215.646 254.464 216.078 254.272C216.522 254.08 216.846 253.936 217.05 253.84C217.254 253.732 217.482 253.594 217.734 253.426C217.986 253.246 218.172 253.054 218.292 252.85C218.424 252.634 218.52 252.388 218.58 252.112L219.84 252.832C219.804 253.024 219.756 253.204 219.696 253.372C219.636 253.528 219.546 253.684 219.426 253.84C219.318 253.984 219.222 254.11 219.138 254.218C219.054 254.326 218.91 254.446 218.706 254.578C218.514 254.698 218.37 254.788 218.274 254.848C218.19 254.908 218.016 254.998 217.752 255.118C217.5 255.238 217.326 255.322 217.23 255.37C217.146 255.406 216.948 255.49 216.636 255.622C216.324 255.742 216.132 255.82 216.06 255.856C215.244 256.204 214.644 256.558 214.26 256.918C213.888 257.278 213.618 257.734 213.45 258.286C213.834 257.806 214.314 257.452 214.89 257.224C215.466 256.996 216.042 256.882 216.618 256.882C217.746 256.882 218.7 257.266 219.48 258.034C220.272 258.802 220.668 259.792 220.668 261.004C220.668 262.228 220.248 263.242 219.408 264.046C218.568 264.838 217.5 265.234 216.204 265.234ZM214.098 262.93C214.662 263.458 215.364 263.722 216.204 263.722C217.044 263.722 217.734 263.464 218.274 262.948C218.826 262.432 219.102 261.784 219.102 261.004C219.102 260.2 218.838 259.546 218.31 259.042C217.794 258.526 217.11 258.268 216.258 258.268C215.49 258.268 214.794 258.514 214.17 259.006C213.558 259.486 213.252 260.122 213.252 260.914C213.252 261.73 213.534 262.402 214.098 262.93ZM226.561 265.234C225.205 265.234 224.077 264.784 223.177 263.884C222.277 262.972 221.827 261.844 221.827 260.5C221.827 259.156 222.277 258.034 223.177 257.134C224.077 256.222 225.205 255.766 226.561 255.766C227.449 255.766 228.247 255.982 228.955 256.414C229.663 256.834 230.191 257.404 230.539 258.124L229.225 258.88C228.997 258.4 228.643 258.016 228.163 257.728C227.695 257.44 227.161 257.296 226.561 257.296C225.661 257.296 224.905 257.602 224.293 258.214C223.693 258.826 223.393 259.588 223.393 260.5C223.393 261.4 223.693 262.156 224.293 262.768C224.905 263.38 225.661 263.686 226.561 263.686C227.161 263.686 227.701 263.548 228.181 263.272C228.661 262.984 229.027 262.6 229.279 262.12L230.611 262.894C230.227 263.602 229.675 264.172 228.955 264.604C228.235 265.024 227.437 265.234 226.561 265.234ZM239.487 256V265H237.921V257.512H234.375V261.184C234.375 262.66 234.075 263.692 233.475 264.28C232.887 264.856 232.053 265.096 230.973 265V263.524C231.585 263.608 232.041 263.476 232.341 263.128C232.653 262.768 232.809 262.108 232.809 261.148V256H239.487ZM248.142 256H249.816L246.144 265.558C245.76 266.578 245.22 267.352 244.524 267.88C243.828 268.42 243.036 268.66 242.148 268.6V267.142C243.252 267.226 244.062 266.626 244.578 265.342L244.722 265.018L240.816 256H242.472L245.55 263.056L248.142 256ZM262 265H260.164L256.798 260.734V265H255.25V260.734L251.884 265H250.066L253.828 260.356L250.246 256H252.064L255.25 259.978V256H256.798V259.978L259.984 256H261.82L258.22 260.356L262 265ZM270.033 256H271.293V265H269.745V258.682L264.759 265H263.499V256H265.047V262.318L270.033 256ZM279.67 260.374C280.594 260.758 281.056 261.454 281.056 262.462C281.056 263.206 280.804 263.818 280.3 264.298C279.808 264.766 279.1 265 278.176 265H273.676V256H277.816C278.716 256 279.412 256.228 279.904 256.684C280.396 257.128 280.642 257.716 280.642 258.448C280.642 259.312 280.318 259.954 279.67 260.374ZM277.744 257.404H275.206V259.762H277.744C278.656 259.762 279.112 259.36 279.112 258.556C279.112 257.788 278.656 257.404 277.744 257.404ZM278.086 263.578C278.542 263.578 278.89 263.47 279.13 263.254C279.382 263.038 279.508 262.732 279.508 262.336C279.508 261.964 279.382 261.676 279.13 261.472C278.89 261.256 278.542 261.148 278.086 261.148H275.206V263.578H278.086ZM290.199 256H291.765V265H290.199V263.452C289.419 264.64 288.285 265.234 286.797 265.234C285.537 265.234 284.463 264.778 283.575 263.866C282.687 262.942 282.243 261.82 282.243 260.5C282.243 259.18 282.687 258.064 283.575 257.152C284.463 256.228 285.537 255.766 286.797 255.766C288.285 255.766 289.419 256.36 290.199 257.548V256ZM286.995 263.722C287.907 263.722 288.669 263.416 289.281 262.804C289.893 262.18 290.199 261.412 290.199 260.5C290.199 259.588 289.893 258.826 289.281 258.214C288.669 257.59 287.907 257.278 286.995 257.278C286.095 257.278 285.339 257.59 284.727 258.214C284.115 258.826 283.809 259.588 283.809 260.5C283.809 261.412 284.115 262.18 284.727 262.804C285.339 263.416 286.095 263.722 286.995 263.722ZM300.365 256H301.931V265H300.365V261.238H295.703V265H294.137V256H295.703V259.744H300.365V256ZM310.849 256H312.109V265H310.561V258.682L305.575 265H304.315V256H305.863V262.318L310.849 256ZM321.225 256V265H319.677V261.76H318.363L315.843 265H313.935L316.563 261.67C315.891 261.502 315.345 261.166 314.925 260.662C314.505 260.158 314.295 259.57 314.295 258.898C314.295 258.07 314.589 257.38 315.177 256.828C315.765 256.276 316.503 256 317.391 256H321.225ZM317.445 260.356H319.677V257.458H317.445C317.001 257.458 316.623 257.59 316.311 257.854C315.999 258.118 315.843 258.472 315.843 258.916C315.843 259.348 315.999 259.696 316.311 259.96C316.623 260.224 317.001 260.356 317.445 260.356ZM159.512 279H161.078V288H159.512V284.238H154.85V288H153.284V279H154.85V282.744H159.512V279ZM170.913 279H172.479V288H170.913V286.452C170.133 287.64 168.999 288.234 167.511 288.234C166.251 288.234 165.177 287.778 164.289 286.866C163.401 285.942 162.957 284.82 162.957 283.5C162.957 282.18 163.401 281.064 164.289 280.152C165.177 279.228 166.251 278.766 167.511 278.766C168.999 278.766 170.133 279.36 170.913 280.548V279ZM167.709 286.722C168.621 286.722 169.383 286.416 169.995 285.804C170.607 285.18 170.913 284.412 170.913 283.5C170.913 282.588 170.607 281.826 169.995 281.214C169.383 280.59 168.621 280.278 167.709 280.278C166.809 280.278 166.053 280.59 165.441 281.214C164.829 281.826 164.523 282.588 164.523 283.5C164.523 284.412 164.829 285.18 165.441 285.804C166.053 286.416 166.809 286.722 167.709 286.722ZM185.58 279H187.146V288H185.58V284.238H180.918V288H179.352V279H180.918V282.744H185.58V279ZM196.982 279H198.548V288H196.982V286.452C196.202 287.64 195.068 288.234 193.58 288.234C192.32 288.234 191.246 287.778 190.358 286.866C189.47 285.942 189.026 284.82 189.026 283.5C189.026 282.18 189.47 281.064 190.358 280.152C191.246 279.228 192.32 278.766 193.58 278.766C195.068 278.766 196.202 279.36 196.982 280.548V279ZM193.778 286.722C194.69 286.722 195.452 286.416 196.064 285.804C196.676 285.18 196.982 284.412 196.982 283.5C196.982 282.588 196.676 281.826 196.064 281.214C195.452 280.59 194.69 280.278 193.778 280.278C192.878 280.278 192.122 280.59 191.51 281.214C190.898 281.826 190.592 282.588 190.592 283.5C190.592 284.412 190.898 285.18 191.51 285.804C192.122 286.416 192.878 286.722 193.778 286.722ZM211.684 279H213.25V288H200.92V279H202.486V286.506H206.302V279H207.868V286.506H211.684V279ZM222.185 279H223.445V288H221.897V281.682L216.911 288H215.651V279H217.199V285.318L222.185 279ZM233.641 288H231.805L229.285 284.598L226.747 288H224.911L228.367 283.374L225.109 279H226.963L229.285 282.132L231.607 279H233.443L230.203 283.356L233.641 288ZM248.898 275.4V288H247.224V276.984H241.428V288H239.754V275.4H248.898ZM260.764 288H258.712L253.276 281.952V288H251.602V275.4H253.276V281.088L258.532 275.4H260.584L255.022 281.52L260.764 288Z" fill="#0045E6"/>
<circle cx="206" cy="153" r="39" fill="white"/>
<path d="M222 153L195 168.588L195 137.412L222 153Z" fill="#0045E6"/>
</svg>
