<svg width="343" height="267" viewBox="0 0 343 267" fill="none" xmlns="http://www.w3.org/2000/svg">
<rect width="343" height="267" fill="white"/>
<path d="M171.5 84.6909C148.003 84.6909 129.062 103.633 129.062 127.13C129.062 150.627 148.003 169.808 171.5 169.808C194.997 169.808 213.939 150.867 213.939 127.369C213.939 103.872 194.997 84.6909 171.5 84.6909ZM171.5 159.738C153.518 159.738 139.132 145.112 139.132 127.369C139.132 109.387 153.758 95.0009 171.5 95.0009C189.483 95.0009 203.869 109.627 203.869 127.369C203.869 145.112 189.483 159.738 171.5 159.738Z" fill="#0045E6"/>
<path d="M171.5 110.106C161.909 110.106 154.236 117.779 154.236 127.37C154.236 136.96 161.909 144.633 171.5 144.633C181.09 144.633 188.763 136.96 188.763 127.37C188.763 117.779 181.09 110.106 171.5 110.106ZM171.5 137.2C165.985 137.2 161.429 132.645 161.429 127.13C161.429 121.615 165.985 117.06 171.5 117.06C177.014 117.06 181.57 121.615 181.57 127.13C181.57 132.884 177.014 137.2 171.5 137.2Z" fill="#0045E6"/>
<path d="M171.5 121.615C168.383 121.615 165.745 124.253 165.745 127.37C165.745 130.487 168.383 133.124 171.5 133.124C174.616 133.124 177.254 130.487 177.254 127.37C177.254 124.253 174.616 121.615 171.5 121.615ZM167.903 124.253C167.903 123.054 168.862 122.095 170.061 122.095C171.26 122.095 172.219 123.054 172.219 124.253C172.219 125.452 171.26 126.411 170.061 126.411C168.862 126.411 167.903 125.452 167.903 124.253ZM171.02 132.405C170.061 132.405 169.342 131.685 169.342 130.726C169.342 129.767 170.061 129.048 171.02 129.048C171.979 129.048 172.698 129.767 172.698 130.726C172.698 131.685 171.979 132.405 171.02 132.405Z" fill="#0045E6"/>
<path d="M171.5 106.75C173.884 106.75 175.816 104.818 175.816 102.434C175.816 100.05 173.884 98.1182 171.5 98.1182C169.117 98.1182 167.185 100.05 167.185 102.434C167.185 104.818 169.117 106.75 171.5 106.75Z" fill="#0045E6"/>
<path d="M171.5 156.382C173.884 156.382 175.816 154.449 175.816 152.066C175.816 149.682 173.884 147.75 171.5 147.75C169.117 147.75 167.185 149.682 167.185 152.066C167.185 154.449 169.117 156.382 171.5 156.382Z" fill="#0045E6"/>
<path d="M153.997 113.943C156.381 113.943 158.313 112.01 158.313 109.627C158.313 107.243 156.381 105.311 153.997 105.311C151.614 105.311 149.682 107.243 149.682 109.627C149.682 112.01 151.614 113.943 153.997 113.943Z" fill="#0045E6"/>
<path d="M189.003 149.188C191.387 149.188 193.319 147.256 193.319 144.872C193.319 142.489 191.387 140.557 189.003 140.557C186.62 140.557 184.688 142.489 184.688 144.872C184.688 147.256 186.62 149.188 189.003 149.188Z" fill="#0045E6"/>
<path d="M146.804 131.685C149.188 131.685 151.12 129.753 151.12 127.37C151.12 124.986 149.188 123.054 146.804 123.054C144.421 123.054 142.488 124.986 142.488 127.37C142.488 129.753 144.421 131.685 146.804 131.685Z" fill="#0045E6"/>
<path d="M196.436 131.685C198.819 131.685 200.752 129.753 200.752 127.37C200.752 124.986 198.819 123.054 196.436 123.054C194.052 123.054 192.12 124.986 192.12 127.37C192.12 129.753 194.052 131.685 196.436 131.685Z" fill="#0045E6"/>
<path d="M153.997 149.188C156.381 149.188 158.313 147.256 158.313 144.872C158.313 142.489 156.381 140.557 153.997 140.557C151.614 140.557 149.682 142.489 149.682 144.872C149.682 147.256 151.614 149.188 153.997 149.188Z" fill="#0045E6"/>
<path d="M189.003 113.943C191.387 113.943 193.319 112.01 193.319 109.627C193.319 107.243 191.387 105.311 189.003 105.311C186.62 105.311 184.688 107.243 184.688 109.627C184.688 112.01 186.62 113.943 189.003 113.943Z" fill="#0045E6"/>
<path d="M229.044 76.0592C229.044 75.3399 229.044 74.6206 229.044 73.6615C229.044 50.8837 113.956 50.8837 113.956 73.6615V76.0592C124.985 68.8662 149.681 65.989 171.5 65.989C193.319 65.989 218.015 68.8662 229.044 76.0592Z" fill="#0045E6"/>
<path d="M171.5 70.3047C143.447 70.3047 120.43 74.8603 113.956 81.334C114.675 108.907 122.588 123.293 126.664 128.808C126.664 128.328 126.664 127.849 126.664 127.369C126.664 102.673 146.804 82.5328 171.5 82.5328C196.196 82.5328 216.337 102.673 216.337 127.369V128.808C220.413 123.293 228.085 109.147 228.804 81.334C226.167 78.6965 220.652 76.2989 212.98 74.3807C202.19 71.7433 187.325 70.3047 171.5 70.3047Z" fill="#0045E6"/>
<path d="M70.0747 196.04C70.5547 196.27 70.9347 196.6 71.2147 197.03C71.5047 197.46 71.6497 197.955 71.6497 198.515C71.6497 199.355 71.3547 200.06 70.7647 200.63C70.1747 201.2 69.4547 201.485 68.6047 201.485H64.0747V190.985H68.2747C69.0947 190.985 69.7897 191.26 70.3597 191.81C70.9297 192.36 71.2147 193.04 71.2147 193.85C71.2147 194.78 70.8347 195.51 70.0747 196.04ZM68.2747 192.29H65.4697V195.5H68.2747C68.7147 195.5 69.0847 195.345 69.3847 195.035C69.6847 194.725 69.8347 194.345 69.8347 193.895C69.8347 193.455 69.6797 193.08 69.3697 192.77C69.0697 192.45 68.7047 192.29 68.2747 192.29ZM68.6047 200.18C69.0747 200.18 69.4697 200.015 69.7897 199.685C70.1097 199.355 70.2697 198.95 70.2697 198.47C70.2697 198 70.1047 197.6 69.7747 197.27C69.4547 196.94 69.0647 196.775 68.6047 196.775H65.4697V200.18H68.6047ZM76.3332 196.685C77.0832 196.685 77.7032 196.91 78.1932 197.36C78.6932 197.8 78.9432 198.375 78.9432 199.085C78.9432 199.795 78.6932 200.375 78.1932 200.825C77.7032 201.265 77.0832 201.485 76.3332 201.485H73.1682V193.985H74.4732V196.685H76.3332ZM79.9182 193.985H81.2232V201.485H79.9182V193.985ZM76.3332 200.27C76.7032 200.27 77.0132 200.165 77.2632 199.955C77.5232 199.735 77.6532 199.445 77.6532 199.085C77.6532 198.725 77.5232 198.435 77.2632 198.215C77.0132 197.995 76.7032 197.885 76.3332 197.885H74.4732V200.27H76.3332ZM94.4671 193.985V201.485H93.1921V196.04L90.8071 199.88H90.6421L88.2571 196.04V201.485H86.9671V193.985H88.3621L90.7171 197.78L93.0721 193.985H94.4671ZM102.789 200.54C102.019 201.3 101.084 201.68 99.9842 201.68C98.8842 201.68 97.9492 201.3 97.1792 200.54C96.4192 199.78 96.0392 198.845 96.0392 197.735C96.0392 196.625 96.4192 195.69 97.1792 194.93C97.9492 194.17 98.8842 193.79 99.9842 193.79C101.084 193.79 102.019 194.17 102.789 194.93C103.559 195.69 103.944 196.625 103.944 197.735C103.944 198.845 103.559 199.78 102.789 200.54ZM99.9842 200.405C100.734 200.405 101.364 200.15 101.874 199.64C102.384 199.13 102.639 198.495 102.639 197.735C102.639 196.975 102.384 196.34 101.874 195.83C101.364 195.32 100.734 195.065 99.9842 195.065C99.2442 195.065 98.6192 195.32 98.1092 195.83C97.5992 196.34 97.3442 196.975 97.3442 197.735C97.3442 198.495 97.5992 199.13 98.1092 199.64C98.6192 200.15 99.2442 200.405 99.9842 200.405ZM114.107 201.485H112.577L109.772 197.93V201.485H108.482V197.93L105.677 201.485H104.162L107.297 197.615L104.312 193.985H105.827L108.482 197.3V193.985H109.772V197.3L112.427 193.985H113.957L110.957 197.615L114.107 201.485ZM115.67 198.335C115.8 199.005 116.105 199.525 116.585 199.895C117.075 200.265 117.675 200.45 118.385 200.45C119.375 200.45 120.095 200.085 120.545 199.355L121.655 199.985C120.925 201.115 119.825 201.68 118.355 201.68C117.165 201.68 116.195 201.31 115.445 200.57C114.705 199.82 114.335 198.875 114.335 197.735C114.335 196.605 114.7 195.665 115.43 194.915C116.16 194.165 117.105 193.79 118.265 193.79C119.365 193.79 120.26 194.18 120.95 194.96C121.65 195.73 122 196.66 122 197.75C122 197.94 121.985 198.135 121.955 198.335H115.67ZM118.265 195.02C117.565 195.02 116.985 195.22 116.525 195.62C116.065 196.01 115.78 196.535 115.67 197.195H120.68C120.57 196.485 120.29 195.945 119.84 195.575C119.39 195.205 118.865 195.02 118.265 195.02ZM128.787 193.985V195.245H126.237V201.485H124.932V195.245H122.367V193.985H128.787ZM130.553 198.335C130.683 199.005 130.988 199.525 131.468 199.895C131.958 200.265 132.558 200.45 133.268 200.45C134.258 200.45 134.978 200.085 135.428 199.355L136.538 199.985C135.808 201.115 134.708 201.68 133.238 201.68C132.048 201.68 131.078 201.31 130.328 200.57C129.588 199.82 129.218 198.875 129.218 197.735C129.218 196.605 129.583 195.665 130.313 194.915C131.043 194.165 131.988 193.79 133.148 193.79C134.248 193.79 135.143 194.18 135.833 194.96C136.533 195.73 136.883 196.66 136.883 197.75C136.883 197.94 136.868 198.135 136.838 198.335H130.553ZM133.148 195.02C132.448 195.02 131.868 195.22 131.408 195.62C130.948 196.01 130.663 196.535 130.553 197.195H135.563C135.453 196.485 135.173 195.945 134.723 195.575C134.273 195.205 133.748 195.02 133.148 195.02ZM148.628 193.985V201.485H147.323V195.23H143.438V201.485H142.133V193.985H148.628ZM156.945 200.54C156.175 201.3 155.24 201.68 154.14 201.68C153.04 201.68 152.105 201.3 151.335 200.54C150.575 199.78 150.195 198.845 150.195 197.735C150.195 196.625 150.575 195.69 151.335 194.93C152.105 194.17 153.04 193.79 154.14 193.79C155.24 193.79 156.175 194.17 156.945 194.93C157.715 195.69 158.1 196.625 158.1 197.735C158.1 198.845 157.715 199.78 156.945 200.54ZM154.14 200.405C154.89 200.405 155.52 200.15 156.03 199.64C156.54 199.13 156.795 198.495 156.795 197.735C156.795 196.975 156.54 196.34 156.03 195.83C155.52 195.32 154.89 195.065 154.14 195.065C153.4 195.065 152.775 195.32 152.265 195.83C151.755 196.34 151.5 196.975 151.5 197.735C151.5 198.495 151.755 199.13 152.265 199.64C152.775 200.15 153.4 200.405 154.14 200.405ZM163.163 201.68C162.033 201.68 161.093 201.305 160.343 200.555C159.593 199.795 159.218 198.855 159.218 197.735C159.218 196.615 159.593 195.68 160.343 194.93C161.093 194.17 162.033 193.79 163.163 193.79C163.903 193.79 164.568 193.97 165.158 194.33C165.748 194.68 166.188 195.155 166.478 195.755L165.383 196.385C165.193 195.985 164.898 195.665 164.498 195.425C164.108 195.185 163.663 195.065 163.163 195.065C162.413 195.065 161.783 195.32 161.273 195.83C160.773 196.34 160.523 196.975 160.523 197.735C160.523 198.485 160.773 199.115 161.273 199.625C161.783 200.135 162.413 200.39 163.163 200.39C163.663 200.39 164.113 200.275 164.513 200.045C164.913 199.805 165.218 199.485 165.428 199.085L166.538 199.73C166.218 200.32 165.758 200.795 165.158 201.155C164.558 201.505 163.893 201.68 163.163 201.68ZM175.341 193.985V201.485H174.066V196.04L171.681 199.88H171.516L169.131 196.04V201.485H167.841V193.985H169.236L171.591 197.78L173.946 193.985H175.341ZM183.663 200.54C182.893 201.3 181.958 201.68 180.858 201.68C179.758 201.68 178.823 201.3 178.053 200.54C177.293 199.78 176.913 198.845 176.913 197.735C176.913 196.625 177.293 195.69 178.053 194.93C178.823 194.17 179.758 193.79 180.858 193.79C181.958 193.79 182.893 194.17 183.663 194.93C184.433 195.69 184.818 196.625 184.818 197.735C184.818 198.845 184.433 199.78 183.663 200.54ZM180.858 200.405C181.608 200.405 182.238 200.15 182.748 199.64C183.258 199.13 183.513 198.495 183.513 197.735C183.513 196.975 183.258 196.34 182.748 195.83C182.238 195.32 181.608 195.065 180.858 195.065C180.118 195.065 179.493 195.32 178.983 195.83C178.473 196.34 178.218 196.975 178.218 197.735C178.218 198.495 178.473 199.13 178.983 199.64C179.493 200.15 180.118 200.405 180.858 200.405ZM191.644 193.985V195.245H189.094V201.485H187.789V195.245H185.224V193.985H191.644ZM196.927 193.79C197.977 193.79 198.872 194.175 199.612 194.945C200.352 195.705 200.722 196.635 200.722 197.735C200.722 198.835 200.352 199.77 199.612 200.54C198.872 201.3 197.977 201.68 196.927 201.68C195.687 201.68 194.742 201.185 194.092 200.195V204.485H192.787V193.985H194.092V195.275C194.742 194.285 195.687 193.79 196.927 193.79ZM196.762 200.42C197.512 200.42 198.142 200.165 198.652 199.655C199.162 199.135 199.417 198.495 199.417 197.735C199.417 196.975 199.162 196.34 198.652 195.83C198.142 195.31 197.512 195.05 196.762 195.05C196.002 195.05 195.367 195.31 194.857 195.83C194.347 196.34 194.092 196.975 194.092 197.735C194.092 198.495 194.347 199.135 194.857 199.655C195.367 200.165 196.002 200.42 196.762 200.42ZM203.195 198.335C203.325 199.005 203.63 199.525 204.11 199.895C204.6 200.265 205.2 200.45 205.91 200.45C206.9 200.45 207.62 200.085 208.07 199.355L209.18 199.985C208.45 201.115 207.35 201.68 205.88 201.68C204.69 201.68 203.72 201.31 202.97 200.57C202.23 199.82 201.86 198.875 201.86 197.735C201.86 196.605 202.225 195.665 202.955 194.915C203.685 194.165 204.63 193.79 205.79 193.79C206.89 193.79 207.785 194.18 208.475 194.96C209.175 195.73 209.525 196.66 209.525 197.75C209.525 197.94 209.51 198.135 209.48 198.335H203.195ZM205.79 195.02C205.09 195.02 204.51 195.22 204.05 195.62C203.59 196.01 203.305 196.535 203.195 197.195H208.205C208.095 196.485 207.815 195.945 207.365 195.575C206.915 195.205 206.39 195.02 205.79 195.02ZM216.312 193.985V195.245H213.762V201.485H212.457V195.245H209.892V193.985H216.312ZM220.62 196.685C221.37 196.685 221.99 196.91 222.48 197.36C222.98 197.8 223.23 198.375 223.23 199.085C223.23 199.795 222.98 200.375 222.48 200.825C221.99 201.265 221.37 201.485 220.62 201.485H217.455V193.985H218.76V196.685H220.62ZM220.62 200.27C220.99 200.27 221.3 200.165 221.55 199.955C221.81 199.735 221.94 199.445 221.94 199.085C221.94 198.725 221.81 198.435 221.55 198.215C221.3 197.995 220.99 197.885 220.62 197.885H218.76V200.27H220.62ZM234.878 193.985V201.485H233.573V195.23H229.688V201.485H228.383V193.985H234.878ZM241.005 193.79C242.055 193.79 242.95 194.175 243.69 194.945C244.43 195.705 244.8 196.635 244.8 197.735C244.8 198.835 244.43 199.77 243.69 200.54C242.95 201.3 242.055 201.68 241.005 201.68C239.765 201.68 238.82 201.185 238.17 200.195V204.485H236.865V193.985H238.17V195.275C238.82 194.285 239.765 193.79 241.005 193.79ZM240.84 200.42C241.59 200.42 242.22 200.165 242.73 199.655C243.24 199.135 243.495 198.495 243.495 197.735C243.495 196.975 243.24 196.34 242.73 195.83C242.22 195.31 241.59 195.05 240.84 195.05C240.08 195.05 239.445 195.31 238.935 195.83C238.425 196.34 238.17 196.975 238.17 197.735C238.17 198.495 238.425 199.135 238.935 199.655C239.445 200.165 240.08 200.42 240.84 200.42ZM251.674 193.985V201.485H250.384V198.785H249.289L247.189 201.485H245.599L247.789 198.71C247.229 198.57 246.774 198.29 246.424 197.87C246.074 197.45 245.899 196.96 245.899 196.4C245.899 195.71 246.144 195.135 246.634 194.675C247.124 194.215 247.739 193.985 248.479 193.985H251.674ZM248.524 197.615H250.384V195.2H248.524C248.154 195.2 247.839 195.31 247.579 195.53C247.319 195.75 247.189 196.045 247.189 196.415C247.189 196.775 247.319 197.065 247.579 197.285C247.839 197.505 248.154 197.615 248.524 197.615ZM261.152 193.985V201.485H259.877V196.04L257.492 199.88H257.327L254.942 196.04V201.485H253.652V193.985H255.047L257.402 197.78L259.757 193.985H261.152ZM268.379 193.985H269.774L266.714 201.95C266.394 202.8 265.944 203.445 265.364 203.885C264.784 204.335 264.124 204.535 263.384 204.485V203.27C264.304 203.34 264.979 202.84 265.409 201.77L265.529 201.5L262.274 193.985H263.654L266.219 199.865L268.379 193.985ZM277.419 193.79C278.519 193.79 279.449 194.17 280.209 194.93C280.979 195.69 281.364 196.625 281.364 197.735C281.364 198.845 280.979 199.78 280.209 200.54C279.449 201.3 278.519 201.68 277.419 201.68C276.429 201.68 275.574 201.365 274.854 200.735C274.134 200.105 273.704 199.31 273.564 198.35H272.169V201.485H270.864V193.985H272.169V197.105H273.564C273.704 196.145 274.134 195.355 274.854 194.735C275.584 194.105 276.439 193.79 277.419 193.79ZM277.419 200.405C278.159 200.405 278.784 200.15 279.294 199.64C279.804 199.13 280.059 198.495 280.059 197.735C280.059 196.975 279.804 196.34 279.294 195.83C278.784 195.32 278.159 195.065 277.419 195.065C276.669 195.065 276.039 195.32 275.529 195.83C275.019 196.34 274.764 196.975 274.764 197.735C274.764 198.495 275.019 199.13 275.529 199.64C276.039 200.15 276.669 200.405 277.419 200.405ZM82.4177 212.985V214.245H79.8677V220.485H78.5627V214.245H75.9977V212.985H82.4177ZM87.7013 212.79C88.7513 212.79 89.6463 213.175 90.3863 213.945C91.1263 214.705 91.4963 215.635 91.4963 216.735C91.4963 217.835 91.1263 218.77 90.3863 219.54C89.6463 220.3 88.7513 220.68 87.7013 220.68C86.4613 220.68 85.5163 220.185 84.8663 219.195V223.485H83.5613V212.985H84.8663V214.275C85.5163 213.285 86.4613 212.79 87.7013 212.79ZM87.5363 219.42C88.2863 219.42 88.9163 219.165 89.4263 218.655C89.9363 218.135 90.1913 217.495 90.1913 216.735C90.1913 215.975 89.9363 215.34 89.4263 214.83C88.9163 214.31 88.2863 214.05 87.5363 214.05C86.7763 214.05 86.1413 214.31 85.6313 214.83C85.1213 215.34 84.8663 215.975 84.8663 216.735C84.8663 217.495 85.1213 218.135 85.6313 218.655C86.1413 219.165 86.7763 219.42 87.5363 219.42ZM99.2635 212.985H100.568V220.485H99.2635V219.195C98.6135 220.185 97.6685 220.68 96.4285 220.68C95.3785 220.68 94.4835 220.3 93.7435 219.54C93.0035 218.77 92.6335 217.835 92.6335 216.735C92.6335 215.635 93.0035 214.705 93.7435 213.945C94.4835 213.175 95.3785 212.79 96.4285 212.79C97.6685 212.79 98.6135 213.285 99.2635 214.275V212.985ZM96.5935 219.42C97.3535 219.42 97.9885 219.165 98.4985 218.655C99.0085 218.135 99.2635 217.495 99.2635 216.735C99.2635 215.975 99.0085 215.34 98.4985 214.83C97.9885 214.31 97.3535 214.05 96.5935 214.05C95.8435 214.05 95.2135 214.31 94.7035 214.83C94.1935 215.34 93.9385 215.975 93.9385 216.735C93.9385 217.495 94.1935 218.135 94.7035 218.655C95.2135 219.165 95.8435 219.42 96.5935 219.42ZM107.736 212.985H109.041V220.485H107.736V217.35H103.851V220.485H102.546V212.985H103.851V216.105H107.736V212.985ZM114.552 220.68C113.422 220.68 112.482 220.305 111.732 219.555C110.982 218.795 110.607 217.855 110.607 216.735C110.607 215.615 110.982 214.68 111.732 213.93C112.482 213.17 113.422 212.79 114.552 212.79C115.292 212.79 115.957 212.97 116.547 213.33C117.137 213.68 117.577 214.155 117.867 214.755L116.772 215.385C116.582 214.985 116.287 214.665 115.887 214.425C115.497 214.185 115.052 214.065 114.552 214.065C113.802 214.065 113.172 214.32 112.662 214.83C112.162 215.34 111.912 215.975 111.912 216.735C111.912 217.485 112.162 218.115 112.662 218.625C113.172 219.135 113.802 219.39 114.552 219.39C115.052 219.39 115.502 219.275 115.902 219.045C116.302 218.805 116.607 218.485 116.817 218.085L117.927 218.73C117.607 219.32 117.147 219.795 116.547 220.155C115.947 220.505 115.282 220.68 114.552 220.68ZM125.324 212.985V220.485H124.019V214.245H121.064V217.305C121.064 218.535 120.814 219.395 120.314 219.885C119.824 220.365 119.129 220.565 118.229 220.485V219.255C118.739 219.325 119.119 219.215 119.369 218.925C119.629 218.625 119.759 218.075 119.759 217.275V212.985H125.324ZM132.912 212.985V220.485H131.622V217.785H130.527L128.427 220.485H126.837L129.027 217.71C128.467 217.57 128.012 217.29 127.662 216.87C127.312 216.45 127.137 215.96 127.137 215.4C127.137 214.71 127.382 214.135 127.872 213.675C128.362 213.215 128.977 212.985 129.717 212.985H132.912ZM129.762 216.615H131.622V214.2H129.762C129.392 214.2 129.077 214.31 128.817 214.53C128.557 214.75 128.427 215.045 128.427 215.415C128.427 215.775 128.557 216.065 128.817 216.285C129.077 216.505 129.392 216.615 129.762 216.615ZM141.189 219.24H142.419V222.495H141.129V220.485H134.889V212.985H136.194V219.24H139.884V212.985H141.189V219.24ZM149.255 212.985H150.305V220.485H149.015V215.22L144.86 220.485H143.81V212.985H145.1V218.25L149.255 212.985ZM158.847 212.79C159.947 212.79 160.877 213.17 161.637 213.93C162.407 214.69 162.792 215.625 162.792 216.735C162.792 217.845 162.407 218.78 161.637 219.54C160.877 220.3 159.947 220.68 158.847 220.68C157.857 220.68 157.002 220.365 156.282 219.735C155.562 219.105 155.132 218.31 154.992 217.35H153.597V220.485H152.292V212.985H153.597V216.105H154.992C155.132 215.145 155.562 214.355 156.282 213.735C157.012 213.105 157.867 212.79 158.847 212.79ZM158.847 219.405C159.587 219.405 160.212 219.15 160.722 218.64C161.232 218.13 161.487 217.495 161.487 216.735C161.487 215.975 161.232 215.34 160.722 214.83C160.212 214.32 159.587 214.065 158.847 214.065C158.097 214.065 157.467 214.32 156.957 214.83C156.447 215.34 156.192 215.975 156.192 216.735C156.192 217.495 156.447 218.13 156.957 218.64C157.467 219.15 158.097 219.405 158.847 219.405ZM174.427 219.54C173.657 220.3 172.722 220.68 171.622 220.68C170.522 220.68 169.587 220.3 168.817 219.54C168.057 218.78 167.677 217.845 167.677 216.735C167.677 215.625 168.057 214.69 168.817 213.93C169.587 213.17 170.522 212.79 171.622 212.79C172.722 212.79 173.657 213.17 174.427 213.93C175.197 214.69 175.582 215.625 175.582 216.735C175.582 217.845 175.197 218.78 174.427 219.54ZM171.622 219.405C172.372 219.405 173.002 219.15 173.512 218.64C174.022 218.13 174.277 217.495 174.277 216.735C174.277 215.975 174.022 215.34 173.512 214.83C173.002 214.32 172.372 214.065 171.622 214.065C170.882 214.065 170.257 214.32 169.747 214.83C169.237 215.34 168.982 215.975 168.982 216.735C168.982 217.495 169.237 218.13 169.747 218.64C170.257 219.15 170.882 219.405 171.622 219.405ZM180.526 220.68C179.416 220.68 178.501 220.315 177.781 219.585C177.061 218.855 176.701 217.915 176.701 216.765C176.701 215.485 176.886 214.5 177.256 213.81C177.636 213.12 178.406 212.495 179.566 211.935C179.776 211.835 180.061 211.705 180.421 211.545C180.791 211.385 181.061 211.265 181.231 211.185C181.401 211.095 181.591 210.98 181.801 210.84C182.011 210.69 182.166 210.53 182.266 210.36C182.376 210.18 182.456 209.975 182.506 209.745L183.556 210.345C183.526 210.505 183.486 210.655 183.436 210.795C183.386 210.925 183.311 211.055 183.211 211.185C183.121 211.305 183.041 211.41 182.971 211.5C182.901 211.59 182.781 211.69 182.611 211.8C182.451 211.9 182.331 211.975 182.251 212.025C182.181 212.075 182.036 212.15 181.816 212.25C181.606 212.35 181.461 212.42 181.381 212.46C181.311 212.49 181.146 212.56 180.886 212.67C180.626 212.77 180.466 212.835 180.406 212.865C179.726 213.155 179.226 213.45 178.906 213.75C178.596 214.05 178.371 214.43 178.231 214.89C178.551 214.49 178.951 214.195 179.431 214.005C179.911 213.815 180.391 213.72 180.871 213.72C181.811 213.72 182.606 214.04 183.256 214.68C183.916 215.32 184.246 216.145 184.246 217.155C184.246 218.175 183.896 219.02 183.196 219.69C182.496 220.35 181.606 220.68 180.526 220.68ZM178.771 218.76C179.241 219.2 179.826 219.42 180.526 219.42C181.226 219.42 181.801 219.205 182.251 218.775C182.711 218.345 182.941 217.805 182.941 217.155C182.941 216.485 182.721 215.94 182.281 215.52C181.851 215.09 181.281 214.875 180.571 214.875C179.931 214.875 179.351 215.08 178.831 215.49C178.321 215.89 178.066 216.42 178.066 217.08C178.066 217.76 178.301 218.32 178.771 218.76ZM189.157 220.68C188.027 220.68 187.087 220.305 186.337 219.555C185.587 218.795 185.212 217.855 185.212 216.735C185.212 215.615 185.587 214.68 186.337 213.93C187.087 213.17 188.027 212.79 189.157 212.79C189.897 212.79 190.562 212.97 191.152 213.33C191.742 213.68 192.182 214.155 192.472 214.755L191.377 215.385C191.187 214.985 190.892 214.665 190.492 214.425C190.102 214.185 189.657 214.065 189.157 214.065C188.407 214.065 187.777 214.32 187.267 214.83C186.767 215.34 186.517 215.975 186.517 216.735C186.517 217.485 186.767 218.115 187.267 218.625C187.777 219.135 188.407 219.39 189.157 219.39C189.657 219.39 190.107 219.275 190.507 219.045C190.907 218.805 191.212 218.485 191.422 218.085L192.532 218.73C192.212 219.32 191.752 219.795 191.152 220.155C190.552 220.505 189.887 220.68 189.157 220.68ZM199.929 212.985V220.485H198.624V214.245H195.669V217.305C195.669 218.535 195.419 219.395 194.919 219.885C194.429 220.365 193.734 220.565 192.834 220.485V219.255C193.344 219.325 193.724 219.215 193.974 218.925C194.234 218.625 194.364 218.075 194.364 217.275V212.985H199.929ZM207.141 212.985H208.536L205.476 220.95C205.156 221.8 204.706 222.445 204.126 222.885C203.546 223.335 202.886 223.535 202.146 223.485V222.27C203.066 222.34 203.741 221.84 204.171 220.77L204.291 220.5L201.036 212.985H202.416L204.981 218.865L207.141 212.985ZM218.69 220.485H217.16L214.355 216.93V220.485H213.065V216.93L210.26 220.485H208.745L211.88 216.615L208.895 212.985H210.41L213.065 216.3V212.985H214.355V216.3L217.01 212.985H218.54L215.54 216.615L218.69 220.485ZM225.383 212.985H226.433V220.485H225.143V215.22L220.988 220.485H219.938V212.985H221.228V218.25L225.383 212.985ZM233.415 216.63C234.185 216.95 234.57 217.53 234.57 218.37C234.57 218.99 234.36 219.5 233.94 219.9C233.53 220.29 232.94 220.485 232.17 220.485H228.42V212.985H231.87C232.62 212.985 233.2 213.175 233.61 213.555C234.02 213.925 234.225 214.415 234.225 215.025C234.225 215.745 233.955 216.28 233.415 216.63ZM231.81 214.155H229.695V216.12H231.81C232.57 216.12 232.95 215.785 232.95 215.115C232.95 214.475 232.57 214.155 231.81 214.155ZM232.095 219.3C232.475 219.3 232.765 219.21 232.965 219.03C233.175 218.85 233.28 218.595 233.28 218.265C233.28 217.955 233.175 217.715 232.965 217.545C232.765 217.365 232.475 217.275 232.095 217.275H229.695V219.3H232.095ZM242.188 212.985H243.493V220.485H242.188V219.195C241.538 220.185 240.593 220.68 239.353 220.68C238.303 220.68 237.408 220.3 236.668 219.54C235.928 218.77 235.558 217.835 235.558 216.735C235.558 215.635 235.928 214.705 236.668 213.945C237.408 213.175 238.303 212.79 239.353 212.79C240.593 212.79 241.538 213.285 242.188 214.275V212.985ZM239.518 219.42C240.278 219.42 240.913 219.165 241.423 218.655C241.933 218.135 242.188 217.495 242.188 216.735C242.188 215.975 241.933 215.34 241.423 214.83C240.913 214.31 240.278 214.05 239.518 214.05C238.768 214.05 238.138 214.31 237.628 214.83C237.118 215.34 236.863 215.975 236.863 216.735C236.863 217.495 237.118 218.135 237.628 218.655C238.138 219.165 238.768 219.42 239.518 219.42ZM250.66 212.985H251.965V220.485H250.66V217.35H246.775V220.485H245.47V212.985H246.775V216.105H250.66V212.985ZM259.397 212.985H260.447V220.485H259.157V215.22L255.002 220.485H253.952V212.985H255.242V218.25L259.397 212.985ZM268.043 212.985V220.485H266.753V217.785H265.658L263.558 220.485H261.968L264.158 217.71C263.598 217.57 263.143 217.29 262.793 216.87C262.443 216.45 262.268 215.96 262.268 215.4C262.268 214.71 262.513 214.135 263.003 213.675C263.493 213.215 264.108 212.985 264.848 212.985H268.043ZM264.893 216.615H266.753V214.2H264.893C264.523 214.2 264.208 214.31 263.948 214.53C263.688 214.75 263.558 215.045 263.558 215.415C263.558 215.775 263.688 216.065 263.948 216.285C264.208 216.505 264.523 216.615 264.893 216.615ZM133.283 231.985H134.588V239.485H133.283V236.35H129.398V239.485H128.093V231.985H129.398V235.105H133.283V231.985ZM142.784 231.985H144.089V239.485H142.784V238.195C142.134 239.185 141.189 239.68 139.949 239.68C138.899 239.68 138.004 239.3 137.264 238.54C136.524 237.77 136.154 236.835 136.154 235.735C136.154 234.635 136.524 233.705 137.264 232.945C138.004 232.175 138.899 231.79 139.949 231.79C141.189 231.79 142.134 232.285 142.784 233.275V231.985ZM140.114 238.42C140.874 238.42 141.509 238.165 142.019 237.655C142.529 237.135 142.784 236.495 142.784 235.735C142.784 234.975 142.529 234.34 142.019 233.83C141.509 233.31 140.874 233.05 140.114 233.05C139.364 233.05 138.734 233.31 138.224 233.83C137.714 234.34 137.459 234.975 137.459 235.735C137.459 236.495 137.714 237.135 138.224 237.655C138.734 238.165 139.364 238.42 140.114 238.42ZM155.006 231.985H156.311V239.485H155.006V236.35H151.121V239.485H149.816V231.985H151.121V235.105H155.006V231.985ZM164.508 231.985H165.813V239.485H164.508V238.195C163.858 239.185 162.913 239.68 161.673 239.68C160.623 239.68 159.728 239.3 158.988 238.54C158.248 237.77 157.878 236.835 157.878 235.735C157.878 234.635 158.248 233.705 158.988 232.945C159.728 232.175 160.623 231.79 161.673 231.79C162.913 231.79 163.858 232.285 164.508 233.275V231.985ZM161.838 238.42C162.598 238.42 163.233 238.165 163.743 237.655C164.253 237.135 164.508 236.495 164.508 235.735C164.508 234.975 164.253 234.34 163.743 233.83C163.233 233.31 162.598 233.05 161.838 233.05C161.088 233.05 160.458 233.31 159.948 233.83C159.438 234.34 159.183 234.975 159.183 235.735C159.183 236.495 159.438 237.135 159.948 237.655C160.458 238.165 161.088 238.42 161.838 238.42ZM176.76 231.985H178.065V239.485H167.79V231.985H169.095V238.24H172.275V231.985H173.58V238.24H176.76V231.985ZM185.51 231.985H186.56V239.485H185.27V234.22L181.115 239.485H180.065V231.985H181.355V237.25L185.51 231.985ZM195.057 239.485H193.527L191.427 236.65L189.312 239.485H187.782L190.662 235.63L187.947 231.985H189.492L191.427 234.595L193.362 231.985H194.892L192.192 235.615L195.057 239.485ZM207.771 228.985V239.485H206.376V230.305H201.546V239.485H200.151V228.985H207.771ZM217.659 239.485H215.949L211.419 234.445V239.485H210.024V228.985H211.419V233.725L215.799 228.985H217.509L212.874 234.085L217.659 239.485Z" fill="#0045E6"/>
</svg>
