<svg width="32" height="32" viewBox="0 0 32 32" fill="none" xmlns="http://www.w3.org/2000/svg">
<path d="M23.1588 13.0453C23.1508 12.4394 23.0373 11.8396 22.8236 11.2725C22.6383 10.7943 22.3553 10.3599 21.9926 9.9972C21.6299 9.6345 21.1955 9.35145 20.7172 9.16613C20.1575 8.95602 19.5662 8.84241 18.9684 8.83013C18.1988 8.79573 17.9548 8.78613 16.0012 8.78613C14.0476 8.78613 13.7972 8.78613 13.0332 8.83013C12.4358 8.8425 11.8447 8.95611 11.2852 9.16613C10.8069 9.35132 10.3724 9.63433 10.0097 9.99704C9.64702 10.3597 9.36402 10.7942 9.17883 11.2725C8.96829 11.8318 8.85493 12.423 8.84363 13.0205C8.80923 13.7909 8.79883 14.0349 8.79883 15.9885C8.79883 17.9421 8.79883 18.1917 8.84363 18.9565C8.85563 19.5549 8.96843 20.1453 9.17883 20.7061C9.36433 21.1843 9.64755 21.6186 10.0104 21.9812C10.3732 22.3437 10.8077 22.6266 11.286 22.8117C11.844 23.0303 12.4351 23.152 13.034 23.1717C13.8044 23.2061 14.0484 23.2165 16.002 23.2165C17.9556 23.2165 18.206 23.2165 18.97 23.1717C19.5678 23.16 20.1591 23.0466 20.7188 22.8365C21.197 22.651 21.6312 22.3679 21.9939 22.0052C22.3566 21.6425 22.6397 21.2083 22.8252 20.7301C23.0356 20.1701 23.1484 19.5797 23.1604 18.9805C23.1948 18.2109 23.2052 17.9669 23.2052 16.0125C23.2036 14.0589 23.2036 13.8109 23.1588 13.0453ZM15.9964 19.6829C13.9532 19.6829 12.298 18.0277 12.298 15.9845C12.298 13.9413 13.9532 12.2861 15.9964 12.2861C16.9773 12.2861 17.918 12.6758 18.6116 13.3694C19.3052 14.063 19.6948 15.0037 19.6948 15.9845C19.6948 16.9654 19.3052 17.9061 18.6116 18.5997C17.918 19.2933 16.9773 19.6829 15.9964 19.6829ZM19.842 13.0117C19.7287 13.0118 19.6166 12.9896 19.5119 12.9463C19.4072 12.903 19.3121 12.8395 19.232 12.7594C19.1519 12.6793 19.0884 12.5842 19.0451 12.4795C19.0018 12.3748 18.9795 12.2626 18.9796 12.1493C18.9796 12.0361 19.0019 11.924 19.0452 11.8195C19.0886 11.7149 19.1521 11.6199 19.2321 11.5398C19.3121 11.4598 19.4072 11.3963 19.5118 11.3529C19.6163 11.3096 19.7284 11.2873 19.8416 11.2873C19.9548 11.2873 20.0669 11.3096 20.1715 11.3529C20.2761 11.3963 20.3711 11.4598 20.4512 11.5398C20.5312 11.6199 20.5947 11.7149 20.638 11.8195C20.6813 11.924 20.7036 12.0361 20.7036 12.1493C20.7036 12.6261 20.318 13.0117 19.842 13.0117Z" fill="white"/>
<path d="M15.9962 18.3868C17.323 18.3868 18.3985 17.3112 18.3985 15.9844C18.3985 14.6576 17.323 13.582 15.9962 13.582C14.6693 13.582 13.5938 14.6576 13.5938 15.9844C13.5938 17.3112 14.6693 18.3868 15.9962 18.3868Z" fill="white"/>
</svg>
