<svg width="32" height="32" viewBox="0 0 32 32" fill="none" xmlns="http://www.w3.org/2000/svg">
<g clip-path="url(#clip0_178_5063)">
<path d="M16.0553 9.40137H16.1532C17.0574 9.40467 21.6389 9.43767 22.8742 9.76987C23.2477 9.87125 23.588 10.0689 23.8611 10.343C24.1342 10.6171 24.3306 10.9581 24.4307 11.3319C24.5418 11.7499 24.6199 12.3032 24.6727 12.8741L24.6837 12.9885L24.7079 13.2745L24.7167 13.3889C24.7882 14.3943 24.797 15.3359 24.7981 15.5416V15.6241C24.797 15.8375 24.7871 16.8429 24.7079 17.8901L24.6991 18.0056L24.6892 18.12C24.6342 18.7492 24.5528 19.374 24.4307 19.8338C24.331 20.2077 24.1346 20.5489 23.8615 20.823C23.5883 21.0972 23.2478 21.2947 22.8742 21.3958C21.5982 21.739 16.7483 21.7632 16.0762 21.7643H15.92C15.5801 21.7643 14.1743 21.7577 12.7003 21.7071L12.5133 21.7005L12.4176 21.6961L12.2295 21.6884L12.0414 21.6807C10.8204 21.6268 9.65772 21.5399 9.12202 21.3947C8.74856 21.2937 8.40819 21.0963 8.13502 20.8224C7.86184 20.5484 7.66545 20.2075 7.56552 19.8338C7.44342 19.3751 7.36202 18.7492 7.30702 18.12L7.29822 18.0045L7.28942 17.8901C7.23513 17.1447 7.20505 16.3978 7.19922 15.6505L7.19922 15.5152C7.20142 15.2787 7.21022 14.4614 7.26962 13.5594L7.27732 13.4461L7.28062 13.3889L7.28942 13.2745L7.31362 12.9885L7.32462 12.8741C7.37742 12.3032 7.45552 11.7488 7.56662 11.3319C7.66638 10.9579 7.8627 10.6168 8.13588 10.3426C8.40907 10.0685 8.74952 9.87095 9.12312 9.76987C9.65882 9.62687 10.8215 9.53887 12.0425 9.48387L12.2295 9.47617L12.4187 9.46957L12.5133 9.46627L12.7014 9.45857C13.7483 9.42488 14.7956 9.40618 15.843 9.40247H16.0553V9.40137ZM14.2392 12.9324V18.2322L18.8119 15.5834L14.2392 12.9324Z" fill="white"/>
</g>
<defs>
<clipPath id="clip0_178_5063">
<rect width="17.6" height="17.6" fill="white" transform="translate(7.19922 7.20117)"/>
</clipPath>
</defs>
</svg>
