<svg width="58" height="58" viewBox="0 0 58 58" fill="none" xmlns="http://www.w3.org/2000/svg">
<circle cx="29" cy="29" r="29" fill="#0045E6"/>
<g clip-path="url(#clip0_265_9391)">
<path d="M26.4525 50.6183C27.2385 51.0282 28.1118 51.2422 28.9982 51.2422C29.8846 51.2422 30.7579 51.0282 31.5438 50.6183L46.4525 42.0122C47.6445 41.3236 48.5953 39.9148 48.8994 38.5166C36.0252 39.2489 27.5763 43.3021 21.9834 48.0456L26.4525 50.6183Z" fill="white"/>
<path d="M46.4535 15.9788L31.5448 7.37095C30.7588 6.96109 29.8855 6.74707 28.9991 6.74707C28.1127 6.74707 27.2394 6.96109 26.4535 7.37095L11.5465 15.9788C10.0941 16.816 9 18.7124 9 20.3868V37.6025C9 39.2787 10.0941 41.1733 11.5465 42.0122L12.6983 42.6764C25.7456 36.1711 40.5354 36.4333 49 37.3491V20.3955C49 18.7124 47.9059 16.816 46.4535 15.9788ZM37.0049 33.8378H20.9951V25.52C21.0328 25.2702 21.164 25.0441 21.3621 24.8873L28.633 20.6926C28.8692 20.6018 29.1308 20.6018 29.367 20.6926L36.6379 24.8873C36.836 25.0441 36.9672 25.2702 37.0049 25.52V33.8378ZM41.6977 33.8378H39.3592V25.52C39.3423 24.9811 39.1926 24.4548 38.9234 23.9876C38.6542 23.5205 38.2737 23.1271 37.8159 22.8424L30.5433 18.6477C30.0681 18.3952 29.5381 18.2632 29 18.2632C28.4619 18.2632 27.9319 18.3952 27.4567 18.6477L20.1859 22.8424C19.7283 23.1263 19.3479 23.5188 19.0784 23.9849C18.8089 24.4511 18.6586 24.9766 18.6408 25.5148V33.8325H16.304V22.6467C16.3314 22.3531 16.4217 22.0689 16.5689 21.8134C16.7161 21.5579 16.9167 21.3372 17.1569 21.1663L28.1453 14.8218C28.4137 14.6997 28.7051 14.6365 29 14.6365C29.2948 14.6365 29.5863 14.6997 29.8547 14.8218L40.843 21.1663C41.0835 21.3371 41.2844 21.5578 41.4319 21.8132C41.5794 22.0687 41.67 22.353 41.6977 22.6467V33.8378ZM46.6457 33.8378H44.0502V22.6519C44.0502 21.3148 43.1763 19.8013 42.0193 19.1336L31.0309 12.7891C30.4045 12.4603 29.7075 12.2884 29 12.2884C28.2925 12.2884 27.5955 12.4603 26.9691 12.7891L15.9807 19.1336C14.8236 19.8013 13.9498 21.3148 13.9498 22.6519V33.8378H11.3473V20.3955C11.3473 19.5688 11.9992 18.4397 12.7158 18.0255L27.6245 9.41937C28.0519 9.21565 28.5195 9.10993 28.993 9.10993C29.4665 9.10993 29.9341 9.21565 30.3615 9.41937L45.2702 18.0255C45.9868 18.4397 46.6387 19.5688 46.6387 20.3955L46.6457 33.8378Z" fill="white"/>
</g>
<defs>
<clipPath id="clip0_265_9391">
<rect width="40" height="44.4953" fill="white" transform="translate(9 6.74716)"/>
</clipPath>
</defs>
</svg>
